# xmcd
#
# Track frame offsets:
#	150
#	12991
#	25981
#	39400
#	48805
#	65165
#	76793
#	89481
#	102240
#	113322
#	126714
#	138101
#	150660
#	162183
#	180798
#
# Disc length: 2537 seconds
#
# Revision: 1
# Processed by: cddbd v1.5.2PL0 Copyright (c) Steve Scherf et al.
# Submitted via: audiograbber 1.83.01
#
DISCID=b109e70f
DTITLE=Reba McEntire - Country Superstar CD2
DYEAR=1993
DGENRE=Country
TTITLE0=You're The First Time I've Thought About Leaving
TTITLE1=Is It Really Love
TTITLE2=Last Night, Ev'ry Night
TTITLE3=Reasons
TTITLE4=Don't Say Goodnight, Say Good Morning
TTITLE5=I Can See Forever In Your Eyes
TTITLE6=Gonna Love Ya (Till The Cows Come Home)
TTITLE7=One Good Reason
TTITLE8=Waitin For The Sun To Shine
TTITLE9=I'd Say You
TTITLE10=(I Still Long To Hold You) Now And Then
TTITLE11=Whoever's Watchin'
TTITLE12=I Don't Think Love Ought To Be
TTITLE13=Long Distance Lover
TTITLE14=I Know I'll Have A Better Day
EXTD=
EXTT0=
EXTT1=
EXTT2=
EXTT3=
EXTT4=
EXTT5=
EXTT6=
EXTT7=
EXTT8=
EXTT9=
EXTT10=
EXTT11=
EXTT12=
EXTT13=
EXTT14=
PLAYORDER=
